HIERARCHY
ROOT hip
{
	OFFSET 0.000000 0.000000 0.000000 
	CHANNELS 6 Xposition Yposition Zposition Xrotation Zrotation Yrotation
	JOINT abdomen
	{
		OFFSET 0.000000 3.402643 0.000000 
		CHANNELS 3 Xrotation Zrotation Yrotation
		JOINT chest
		{
			OFFSET 0.000000 8.438565 -0.680529 
			CHANNELS 3 Xrotation Zrotation Yrotation
			JOINT neck
			{
				OFFSET 0.000000 10.207942 -0.272212 
				CHANNELS 3 Xrotation Zrotation Yrotation
				JOINT head
				{
					OFFSET 0.000000 3.130431 0.000000 
					CHANNELS 3 Xrotation Zrotation Yrotation
					End Site
					{
						OFFSET 0.000000 3.130435 0.000000 
					}
				}
			}
			JOINT lCollar
			{
				OFFSET 3.470700 6.669187 -0.816635 
				CHANNELS 3 Yrotation Zrotation Xrotation
				JOINT lShldr
				{
					OFFSET 3.198488 0.000000 0.000000 
					CHANNELS 3 Zrotation Yrotation Xrotation
					JOINT lForeArm
					{
						OFFSET 10.139888 0.000000 0.000000 
						CHANNELS 3 Yrotation Zrotation Xrotation
						JOINT lHand
						{
							OFFSET 8.370511 0.000000 0.000000 
							CHANNELS 3 Zrotation Yrotation Xrotation
							End Site
							{
								OFFSET 4.083176 0.000000 0.000000 
							}
						}
					}
				}
			}
			JOINT rCollar
			{
				OFFSET -3.470700 6.669187 -0.816635 
				CHANNELS 3 Yrotation Zrotation Xrotation
				JOINT rShldr
				{
					OFFSET -3.198488 0.000000 0.000000 
					CHANNELS 3 Zrotation Yrotation Xrotation
					JOINT rForeArm
					{
						OFFSET -10.139888 0.000000 0.000000 
						CHANNELS 3 Yrotation Zrotation Xrotation
						JOINT rHand
						{
							OFFSET -8.370511 0.000000 0.000000 
							CHANNELS 3 Zrotation Yrotation Xrotation
							End Site
							{
								OFFSET -4.083176 0.000000 0.000000 
							}
						}
					}
				}
			}
		}
	}
	JOINT lThigh
	{
		OFFSET 5.308129 -1.633274 1.361059 
		CHANNELS 3 Xrotation Zrotation Yrotation
		JOINT lShin
		{
			OFFSET -2.041588 -20.007561 0.000000 
			CHANNELS 3 Xrotation Zrotation Yrotation
			JOINT lFoot
			{
				OFFSET 0.000000 -19.190928 -1.224953 
				CHANNELS 3 Xrotation Yrotation Zrotation
				End Site
				{
					OFFSET 0.000000 -2.449906 4.627600 
				}
			}
		}
	}
	JOINT rThigh
	{
		OFFSET -5.308129 -1.633274 1.361059 
		CHANNELS 3 Xrotation Zrotation Yrotation
		JOINT rShin
		{
			OFFSET 2.041588 -20.007561 0.000000 
			CHANNELS 3 Xrotation Zrotation Yrotation
			JOINT rFoot
			{
				OFFSET 0.000000 -19.190928 -1.224953 
				CHANNELS 3 Xrotation Yrotation Zrotation
				End Site
				{
					OFFSET 0.000000 -2.449906 4.627600 
				}
			}
		}
	}
}
MOTION
Frames: 6
Frame Time: 0.033333
-15.873616 43.744118 -16.928652 -0.454475 0.863305 -3.164810 -0.019530 -0.019644 -0.019419 0.019531 -0.010149 -0.009372 -0.028640 -0.953763 -0.079181 7.591270 -6.278730 0.768259 -4.129159 -14.680246 8.651181 -65.536102 -6.920300 15.132800 -10.412000 -2.560840 50.222599 3.799090 21.409599 0.301350 -1.652688 15.599293 8.803291 62.042301 14.314000 -2.181320 8.109020 1.148560 35.188499 9.749820 -3.007850 2.476200 -13.335219 1.580658 10.854082 24.366144 0.141280 -0.151262 -11.087594 -0.609495 1.314309 -15.740113 -1.151840 -12.125778 26.555742 -0.234407 -0.913746 -11.293624 0.726654 -2.113202 
-15.861146 43.747826 -16.922476 -0.643307 0.880366 -3.330370 -0.019530 -0.019644 -0.019419 0.019531 -0.010149 -0.009372 -0.028599 -0.982960 -0.081605 7.692260 -6.369330 0.825183 -4.019387 -14.750378 8.869092 -65.438301 -6.956350 15.471400 -10.383700 -2.550780 50.062099 3.997840 21.397800 0.293331 -1.661334 15.413748 9.064410 62.287498 14.297800 -2.253750 8.176770 1.167860 35.694401 9.743340 -3.328740 2.452610 -13.095442 1.572613 11.036896 24.298304 0.122846 -0.142548 -11.087529 -0.609446 1.325185 -15.552926 -1.151292 -11.979435 26.545233 -0.234429 -0.894677 -11.293888 0.720433 -2.094585 
-15.849575 43.748383 -16.926743 -0.744426 0.867990 -3.505550 -0.019530 -0.019644 -0.019419 0.019531 -0.010540 -0.019129 -0.028598 -0.983769 -0.071873 7.645420 -6.552270 1.046450 -3.959162 -14.770903 8.960833 -65.406601 -6.905050 15.425500 -10.471100 -2.561780 50.235001 3.977640 21.456900 0.288067 -1.721547 15.344959 9.156133 62.361301 14.234900 -1.967170 8.310690 1.168690 35.918800 9.679440 -3.905810 2.392610 -12.955484 1.571301 11.195021 24.288450 0.141341 -0.138530 -11.116743 -0.613415 1.334048 -15.467305 -1.132666 -11.820611 26.544855 -0.234433 -0.884956 -11.284093 0.732082 -2.099671 
-15.842385 43.748047 -16.938425 -0.788097 0.844970 -3.739150 -0.019530 -0.019644 -0.019419 0.019531 -0.010540 -0.019129 -0.028625 -0.964305 -0.070257 7.500690 -6.820240 1.372820 -3.847567 -14.743542 9.041437 -65.451599 -6.862550 15.168500 -10.603300 -2.581410 50.488602 3.821580 21.526501 0.302157 -1.772760 15.412890 9.219914 62.186798 14.225200 -1.399790 8.520510 1.149910 35.664299 9.760440 -4.619680 2.353590 -12.909739 1.621031 11.433998 24.298952 0.141324 -0.119461 -11.136185 -0.618995 1.342095 -15.452625 -1.072838 -11.561194 26.546087 -0.220423 -0.911072 -11.244747 0.736651 -2.119079 
-15.835982 43.747368 -16.952581 -0.772781 0.822227 -3.953640 -0.019530 -0.019644 -0.019419 0.019531 -0.010540 -0.019129 -0.028653 -0.944031 -0.078373 7.229050 -7.103170 1.683110 -3.766119 -14.705888 9.073563 -65.520699 -6.864010 14.876400 -10.716200 -2.579180 50.649101 3.570290 21.518700 0.317703 -1.824960 15.588177 9.218729 61.911301 14.223700 -0.704041 8.692110 1.115970 34.979198 9.837340 -5.022890 2.341800 -12.926348 1.668813 11.637009 24.308714 0.141311 -0.119839 -11.155801 -0.615184 1.333127 -15.515205 -0.996000 -11.346564 26.555845 -0.220417 -0.910699 -11.195970 0.740468 -2.117146 
-15.822277 43.746803 -16.960556 -0.744828 0.821200 -4.022130 -0.019530 -0.019644 -0.019419 0.019531 -0.010149 -0.009372 -0.028653 -0.944031 -0.078373 6.970390 -7.355380 1.863600 -3.796574 -14.715137 9.114329 -65.577103 -6.874390 14.706300 -10.824300 -2.581810 50.600399 3.338380 21.403299 0.317512 -1.958346 15.752971 9.241384 61.599899 14.249900 -0.035114 8.701800 1.064900 34.046501 9.657340 -4.810860 2.324060 -12.977109 1.649864 11.669726 24.319267 0.131502 -0.102699 -11.155658 -0.618257 1.353281 -15.584875 -1.015757 -11.300692 26.583275 -0.215966 -0.860062 -11.196049 0.719936 -2.105619 
